<svg xmlns="http://www.w3.org/2000/svg" xmlns:xlink="http://www.w3.org/1999/xlink" width="2000" zoomAndPan="magnify" viewBox="0 0 1500 1499.999933" height="2000" preserveAspectRatio="xMidYMid meet" version="1.0"><defs><clipPath id="cb1ed9c141"><path d="M 419.308594 609 L 1457.308594 609 L 1457.308594 891 L 419.308594 891 Z M 419.308594 609 " clip-rule="nonzero"/></clipPath><clipPath id="3ba20b7e40"><path d="M 42.96875 597.503906 L 348 597.503906 L 348 895 L 42.96875 895 Z M 42.96875 597.503906 " clip-rule="nonzero"/></clipPath></defs><g clip-path="url(#cb1ed9c141)"><path fill="#1b1f24" d="M 850.058594 842.269531 L 849.644531 842.269531 C 849.644531 842.269531 849.644531 842.6875 850.058594 842.269531 Z M 850.058594 842.6875 C 847.976562 842.6875 842.5625 843.9375 836.730469 843.9375 C 818.398438 843.9375 812.148438 835.605469 812.148438 824.773438 L 812.148438 751.871094 L 849.226562 751.871094 C 851.308594 751.871094 852.976562 750.203125 852.976562 747.289062 L 852.976562 707.710938 C 852.976562 705.628906 851.308594 703.964844 849.226562 703.964844 L 812.148438 703.964844 L 812.148438 654.804688 C 812.148438 653.140625 810.902344 651.890625 808.816406 651.890625 L 758.828125 651.890625 C 756.746094 651.890625 755.496094 653.140625 755.496094 654.804688 L 755.496094 705.214844 C 755.496094 705.214844 730.082031 711.460938 728.417969 711.878906 C 726.75 712.296875 725.5 713.960938 725.5 715.628906 L 725.5 747.289062 C 725.5 749.789062 727.167969 751.871094 729.25 751.871094 L 755.078125 751.871094 L 755.078125 828.105469 C 755.078125 884.761719 794.652344 890.59375 821.730469 890.59375 C 834.230469 890.59375 848.808594 886.84375 851.308594 885.59375 C 852.558594 885.179688 853.390625 883.511719 853.390625 881.847656 L 853.390625 846.851562 C 853.390625 844.769531 851.726562 843.101562 850.058594 842.6875 Z M 1400.371094 791.445312 C 1400.371094 749.371094 1383.292969 743.957031 1365.378906 745.621094 C 1351.628906 746.457031 1340.382812 753.539062 1340.382812 753.539062 L 1340.382812 835.1875 C 1340.382812 835.1875 1351.628906 843.101562 1368.710938 843.519531 C 1392.871094 844.351562 1400.371094 836.019531 1400.371094 791.445312 Z M 1457.027344 787.699219 C 1457.027344 867.265625 1431.199219 890.179688 1386.207031 890.179688 C 1348.296875 890.179688 1327.46875 871.015625 1327.46875 871.015625 C 1327.46875 871.015625 1326.636719 881.847656 1325.386719 883.097656 C 1324.550781 884.34375 1323.71875 884.761719 1322.054688 884.761719 L 1287.476562 884.761719 C 1284.976562 884.761719 1282.894531 883.097656 1282.894531 881.011719 L 1283.308594 622.730469 C 1283.308594 620.644531 1284.976562 618.980469 1287.058594 618.980469 L 1336.632812 618.980469 C 1338.714844 618.980469 1340.382812 620.644531 1340.382812 622.730469 L 1339.964844 709.796875 C 1339.964844 709.796875 1359.128906 697.296875 1387.039062 697.296875 L 1387.457031 697.296875 C 1415.785156 697.714844 1457.027344 708.128906 1457.027344 787.699219 Z M 1254.566406 703.964844 L 1205.824219 703.964844 C 1203.324219 703.964844 1202.074219 705.628906 1202.074219 708.546875 L 1202.074219 834.773438 C 1202.074219 834.773438 1189.160156 843.9375 1171.664062 843.9375 C 1154.167969 843.9375 1149.167969 836.019531 1149.167969 818.523438 L 1149.167969 708.128906 C 1149.167969 706.046875 1147.503906 704.378906 1145.421875 704.378906 L 1095.847656 704.378906 C 1093.761719 704.378906 1092.097656 706.046875 1092.097656 708.128906 L 1092.097656 826.855469 C 1092.097656 878.097656 1120.839844 890.59375 1160 890.59375 C 1192.496094 890.59375 1218.738281 872.679688 1218.738281 872.679688 C 1218.738281 872.679688 1219.988281 881.847656 1220.40625 883.097656 C 1220.824219 884.34375 1222.488281 885.179688 1224.15625 885.179688 L 1255.398438 885.179688 C 1257.898438 885.179688 1259.148438 883.511719 1259.148438 881.429688 L 1259.566406 707.710938 C 1258.730469 705.628906 1257.066406 703.964844 1254.566406 703.964844 Z M 703.835938 703.546875 L 654.265625 703.546875 C 652.179688 703.546875 650.515625 705.628906 650.515625 708.128906 L 650.515625 878.511719 C 650.515625 883.097656 653.429688 884.761719 657.597656 884.761719 L 702.171875 884.761719 C 706.753906 884.761719 708.003906 882.679688 708.003906 878.511719 L 708.003906 707.710938 C 707.585938 705.628906 705.921875 703.546875 703.835938 703.546875 Z M 679.257812 625.226562 C 661.34375 625.226562 647.183594 639.390625 647.183594 657.304688 C 647.183594 675.21875 661.34375 689.382812 679.257812 689.382812 C 696.753906 689.382812 710.917969 675.21875 710.917969 657.304688 C 710.917969 639.390625 696.753906 625.226562 679.257812 625.226562 Z M 1062.519531 619.394531 L 1013.363281 619.394531 C 1011.277344 619.394531 1009.613281 621.0625 1009.613281 623.144531 L 1009.613281 718.128906 L 932.542969 718.128906 L 932.542969 623.144531 C 932.542969 621.0625 930.878906 619.394531 928.792969 619.394531 L 879.222656 619.394531 C 877.136719 619.394531 875.472656 621.0625 875.472656 623.144531 L 875.472656 881.429688 C 875.472656 883.511719 877.554688 885.179688 879.222656 885.179688 L 928.792969 885.179688 C 930.878906 885.179688 932.542969 883.511719 932.542969 881.429688 L 932.542969 771.035156 L 1009.613281 771.035156 L 1009.195312 881.429688 C 1009.195312 883.511719 1010.863281 885.179688 1012.945312 885.179688 L 1062.519531 885.179688 C 1064.601562 885.179688 1066.269531 883.511719 1066.269531 881.429688 L 1066.269531 623.144531 C 1066.269531 621.0625 1064.601562 619.394531 1062.519531 619.394531 Z M 623.851562 733.539062 L 623.851562 866.847656 C 623.851562 867.683594 623.4375 869.347656 622.601562 869.765625 C 622.601562 869.765625 593.441406 890.59375 545.535156 890.59375 C 488.046875 890.59375 419.308594 872.679688 419.308594 753.121094 C 419.308594 633.976562 479.296875 608.980469 537.621094 609.398438 C 588.441406 609.398438 608.855469 620.644531 611.773438 622.730469 C 612.605469 623.980469 613.023438 624.8125 613.023438 626.0625 L 603.441406 667.304688 C 603.441406 669.386719 601.355469 671.886719 598.859375 671.054688 C 590.527344 668.554688 578.027344 663.554688 548.449219 663.554688 C 514.289062 663.554688 477.628906 673.136719 477.628906 750.203125 C 477.628906 827.273438 512.625 836.019531 537.621094 836.019531 C 558.863281 836.019531 566.78125 833.523438 566.78125 833.523438 L 566.78125 780.617188 L 532.621094 780.617188 C 530.121094 780.617188 528.039062 778.949219 528.039062 776.867188 L 528.039062 733.539062 C 528.039062 731.457031 529.703125 729.792969 532.621094 729.792969 L 619.6875 729.792969 C 622.1875 729.792969 623.851562 731.457031 623.851562 733.539062 Z M 623.851562 733.539062 " fill-opacity="1" fill-rule="nonzero"/></g><g clip-path="url(#3ba20b7e40)"><path fill="#1b1f23" d="M 195.464844 597.503906 C 111.210938 597.503906 42.96875 665.746094 42.96875 750 C 42.96875 817.480469 86.621094 874.472656 147.238281 894.679688 C 154.863281 896.015625 157.722656 891.441406 157.722656 887.4375 C 157.722656 883.816406 157.53125 871.804688 157.53125 859.035156 C 119.21875 866.085938 109.304688 849.695312 106.253906 841.117188 C 104.539062 836.730469 97.105469 823.199219 90.625 819.574219 C 85.285156 816.714844 77.660156 809.664062 90.433594 809.472656 C 102.441406 809.28125 111.019531 820.527344 113.878906 825.105469 C 127.605469 848.167969 149.527344 841.6875 158.292969 837.683594 C 159.628906 827.773438 163.632812 821.101562 168.015625 817.289062 C 134.085938 813.476562 98.628906 800.324219 98.628906 741.992188 C 98.628906 725.410156 104.539062 711.683594 114.261719 701.011719 C 112.734375 697.199219 107.398438 681.566406 115.785156 660.597656 C 115.785156 660.597656 128.558594 656.59375 157.722656 676.230469 C 169.921875 672.796875 182.882812 671.082031 195.847656 671.082031 C 208.808594 671.082031 221.769531 672.796875 233.96875 676.230469 C 263.136719 656.40625 275.90625 660.597656 275.90625 660.597656 C 284.292969 681.566406 278.957031 697.199219 277.433594 701.011719 C 287.152344 711.683594 293.0625 725.21875 293.0625 741.992188 C 293.0625 800.515625 257.417969 813.476562 223.488281 817.289062 C 229.015625 822.054688 233.78125 831.203125 233.78125 845.5 C 233.78125 865.894531 233.589844 882.289062 233.589844 887.4375 C 233.589844 891.441406 236.449219 896.203125 244.074219 894.679688 C 304.308594 874.472656 347.960938 817.289062 347.960938 750 C 347.960938 665.746094 279.71875 597.503906 195.464844 597.503906 Z M 195.464844 597.503906 " fill-opacity="1" fill-rule="evenodd"/></g></svg>