<svg xmlns="http://www.w3.org/2000/svg" xmlns:xlink="http://www.w3.org/1999/xlink" width="2000" zoomAndPan="magnify" viewBox="0 0 1500 1499.999933" height="2000" preserveAspectRatio="xMidYMid meet" version="1.0"><defs><clipPath id="d96860edea"><path d="M 419.308594 609 L 1457.308594 609 L 1457.308594 891 L 419.308594 891 Z M 419.308594 609 " clip-rule="nonzero"/></clipPath><clipPath id="df41b46399"><path d="M 42.96875 597.503906 L 348.21875 597.503906 L 348.21875 896 L 42.96875 896 Z M 42.96875 597.503906 " clip-rule="nonzero"/></clipPath></defs><g clip-path="url(#d96860edea)"><path fill="#ffffff" d="M 850.175781 842.058594 L 849.757812 842.058594 C 849.757812 842.058594 849.757812 842.472656 850.175781 842.058594 Z M 850.175781 842.472656 C 848.09375 842.472656 842.675781 843.722656 836.84375 843.722656 C 818.507812 843.722656 812.257812 835.398438 812.257812 824.578125 L 812.257812 751.742188 L 849.34375 751.742188 C 851.425781 751.742188 853.09375 750.074219 853.09375 747.160156 L 853.09375 707.621094 C 853.09375 705.542969 851.425781 703.875 849.34375 703.875 L 812.257812 703.875 L 812.257812 654.765625 C 812.257812 653.097656 811.007812 651.851562 808.921875 651.851562 L 758.917969 651.851562 C 756.835938 651.851562 755.585938 653.097656 755.585938 654.765625 L 755.585938 705.125 C 755.585938 705.125 730.167969 711.367188 728.5 711.785156 C 726.832031 712.199219 725.582031 713.867188 725.582031 715.53125 L 725.582031 747.160156 C 725.582031 749.660156 727.25 751.742188 729.332031 751.742188 L 755.167969 751.742188 L 755.167969 827.90625 C 755.167969 884.511719 794.753906 890.335938 821.839844 890.335938 C 834.339844 890.335938 848.925781 886.589844 851.425781 885.34375 C 852.675781 884.925781 853.511719 883.261719 853.511719 881.597656 L 853.511719 846.636719 C 853.511719 844.554688 851.84375 842.890625 850.175781 842.472656 Z M 1400.636719 791.28125 C 1400.636719 749.242188 1383.550781 743.832031 1365.632812 745.496094 C 1351.882812 746.328125 1340.632812 753.40625 1340.632812 753.40625 L 1340.632812 834.980469 C 1340.632812 834.980469 1351.882812 842.890625 1368.96875 843.304688 C 1393.136719 844.136719 1400.636719 835.8125 1400.636719 791.28125 Z M 1457.308594 787.535156 C 1457.308594 867.03125 1431.472656 889.921875 1386.46875 889.921875 C 1348.550781 889.921875 1327.714844 870.777344 1327.714844 870.777344 C 1327.714844 870.777344 1326.882812 881.597656 1325.632812 882.847656 C 1324.796875 884.09375 1323.964844 884.511719 1322.296875 884.511719 L 1287.710938 884.511719 C 1285.210938 884.511719 1283.128906 882.847656 1283.128906 880.765625 L 1283.542969 622.714844 C 1283.542969 620.636719 1285.210938 618.96875 1287.292969 618.96875 L 1336.882812 618.96875 C 1338.964844 618.96875 1340.632812 620.636719 1340.632812 622.714844 L 1340.214844 709.703125 C 1340.214844 709.703125 1359.382812 697.21875 1387.300781 697.21875 L 1387.71875 697.21875 C 1416.054688 697.632812 1457.308594 708.039062 1457.308594 787.535156 Z M 1254.792969 703.875 L 1206.039062 703.875 C 1203.539062 703.875 1202.289062 705.542969 1202.289062 708.453125 L 1202.289062 834.566406 C 1202.289062 834.566406 1189.371094 843.722656 1171.867188 843.722656 C 1154.367188 843.722656 1149.367188 835.8125 1149.367188 818.332031 L 1149.367188 708.039062 C 1149.367188 705.957031 1147.699219 704.292969 1145.617188 704.292969 L 1096.03125 704.292969 C 1093.945312 704.292969 1092.277344 705.957031 1092.277344 708.039062 L 1092.277344 826.65625 C 1092.277344 877.851562 1121.03125 890.335938 1160.203125 890.335938 C 1192.703125 890.335938 1218.957031 872.441406 1218.957031 872.441406 C 1218.957031 872.441406 1220.207031 881.597656 1220.621094 882.847656 C 1221.039062 884.09375 1222.707031 884.925781 1224.375 884.925781 L 1255.625 884.925781 C 1258.125 884.925781 1259.375 883.261719 1259.375 881.179688 L 1259.792969 707.621094 C 1258.960938 705.542969 1257.292969 703.875 1254.792969 703.875 Z M 703.914062 703.460938 L 654.328125 703.460938 C 652.242188 703.460938 650.578125 705.542969 650.578125 708.039062 L 650.578125 878.265625 C 650.578125 882.847656 653.492188 884.511719 657.660156 884.511719 L 702.246094 884.511719 C 706.832031 884.511719 708.082031 882.429688 708.082031 878.265625 L 708.082031 707.621094 C 707.664062 705.542969 706 703.460938 703.914062 703.460938 Z M 679.328125 625.214844 C 661.410156 625.214844 647.242188 639.363281 647.242188 657.261719 C 647.242188 675.15625 661.410156 689.308594 679.328125 689.308594 C 696.832031 689.308594 711 675.15625 711 657.261719 C 711 639.363281 696.832031 625.214844 679.328125 625.214844 Z M 1062.695312 619.386719 L 1013.523438 619.386719 C 1011.4375 619.386719 1009.773438 621.050781 1009.773438 623.132812 L 1009.773438 718.027344 L 932.683594 718.027344 L 932.683594 623.132812 C 932.683594 621.050781 931.015625 619.386719 928.933594 619.386719 L 879.34375 619.386719 C 877.261719 619.386719 875.59375 621.050781 875.59375 623.132812 L 875.59375 881.179688 C 875.59375 883.261719 877.679688 884.925781 879.34375 884.925781 L 928.933594 884.925781 C 931.015625 884.925781 932.683594 883.261719 932.683594 881.179688 L 932.683594 770.886719 L 1009.773438 770.886719 L 1009.355469 881.179688 C 1009.355469 883.261719 1011.023438 884.925781 1013.105469 884.925781 L 1062.691406 884.925781 C 1064.777344 884.925781 1066.445312 883.261719 1066.445312 881.179688 L 1066.445312 623.132812 C 1066.445312 621.050781 1064.777344 619.386719 1062.695312 619.386719 Z M 623.910156 733.425781 L 623.910156 866.613281 C 623.910156 867.445312 623.492188 869.109375 622.65625 869.527344 C 622.65625 869.527344 593.488281 890.335938 545.570312 890.335938 C 488.0625 890.335938 419.308594 872.441406 419.308594 752.988281 C 419.308594 633.953125 479.3125 608.980469 537.652344 609.398438 C 588.488281 609.398438 608.90625 620.636719 611.824219 622.714844 C 612.65625 623.964844 613.074219 624.796875 613.074219 626.046875 L 603.488281 667.25 C 603.488281 669.332031 601.40625 671.828125 598.90625 670.996094 C 590.570312 668.5 578.070312 663.503906 548.484375 663.503906 C 514.316406 663.503906 477.648438 673.078125 477.648438 750.074219 C 477.648438 827.074219 512.648438 835.8125 537.652344 835.8125 C 558.902344 835.8125 566.820312 833.316406 566.820312 833.316406 L 566.820312 780.457031 L 532.652344 780.457031 C 530.152344 780.457031 528.066406 778.792969 528.066406 776.710938 L 528.066406 733.425781 C 528.066406 731.347656 529.734375 729.679688 532.652344 729.679688 L 619.742188 729.679688 C 622.242188 729.679688 623.910156 731.347656 623.910156 733.425781 Z M 623.910156 733.425781 " fill-opacity="1" fill-rule="nonzero"/></g><g clip-path="url(#df41b46399)"><path fill="#ffffff" d="M 195.59375 597.503906 C 111.269531 597.503906 42.96875 665.804688 42.96875 750.128906 C 42.96875 817.664062 86.65625 874.707031 147.328125 894.929688 C 154.957031 896.265625 157.820312 891.6875 157.820312 887.679688 C 157.820312 884.058594 157.628906 872.039062 157.628906 859.253906 C 119.28125 866.3125 109.359375 849.90625 106.308594 841.320312 C 104.589844 836.933594 97.152344 823.386719 90.664062 819.761719 C 85.324219 816.902344 77.691406 809.84375 90.472656 809.652344 C 102.492188 809.460938 111.078125 820.71875 113.941406 825.296875 C 127.675781 848.378906 149.617188 841.894531 158.390625 837.886719 C 159.726562 827.96875 163.734375 821.289062 168.121094 817.472656 C 134.164062 813.660156 98.675781 800.496094 98.675781 742.117188 C 98.675781 725.515625 104.589844 711.78125 114.320312 701.097656 C 112.796875 697.28125 107.453125 681.636719 115.847656 660.652344 C 115.847656 660.652344 128.628906 656.644531 157.820312 676.296875 C 170.03125 672.863281 183.003906 671.144531 195.976562 671.144531 C 208.949219 671.144531 221.921875 672.863281 234.132812 676.296875 C 263.320312 656.453125 276.105469 660.652344 276.105469 660.652344 C 284.5 681.636719 279.15625 697.28125 277.628906 701.097656 C 287.359375 711.78125 293.273438 725.328125 293.273438 742.117188 C 293.273438 800.683594 257.597656 813.660156 223.640625 817.472656 C 229.171875 822.242188 233.941406 831.402344 233.941406 845.710938 C 233.941406 866.125 233.75 882.53125 233.75 887.679688 C 233.75 891.6875 236.613281 896.457031 244.242188 894.929688 C 304.53125 874.707031 348.21875 817.472656 348.21875 750.128906 C 348.21875 665.804688 279.917969 597.503906 195.59375 597.503906 Z M 195.59375 597.503906 " fill-opacity="1" fill-rule="evenodd"/></g></svg>